<svg xmlns="http://www.w3.org/2000/svg" viewBox="0 0 400 400" role="img" aria-label="Kherson watermelon">
  <rect width="400" height="400" fill="#fdf6ee"/>
  <!-- whole melon behind -->
  <ellipse cx="150" cy="214" rx="104" ry="96" fill="#2f7d32"/>
  <g stroke="#1f5c22" stroke-width="9" fill="none" opacity=".8">
    <path d="M96 132c-26 40-26 124 0 164"/>
    <path d="M150 118c-14 44-14 148 0 192"/>
    <path d="M204 132c26 40 26 124 0 164"/>
  </g>
  <ellipse cx="118" cy="176" rx="26" ry="16" fill="#fff" opacity=".18"/>
  <!-- cut slice in front -->
  <path d="M256 300c-58 0-104-48-104-108 0-16 4-32 10-46l188 0c6 14 10 30 10 46 0 60-46 108-104 108z" fill="#2f7d32"/>
  <path d="M256 300c-52 0-94-44-94-100 0-12 2-24 6-36l176 0c4 12 6 24 6 36 0 56-42 100-94 100z" fill="#f4f0d8"/>
  <path d="M256 296c-48 0-86-42-86-96l172 0c0 54-38 96-86 96z" fill="#e2445c"/>
  <path d="M256 296c-48 0-86-42-86-96l172 0c0 54-38 96-86 96z" fill="#ee6478" opacity=".4"/>
  <g fill="#2b2b2b">
    <ellipse cx="224" cy="228" rx="4" ry="7"/>
    <ellipse cx="256" cy="240" rx="4" ry="7"/>
    <ellipse cx="288" cy="228" rx="4" ry="7"/>
    <ellipse cx="238" cy="262" rx="4" ry="7"/>
    <ellipse cx="274" cy="262" rx="4" ry="7"/>
    <ellipse cx="256" cy="212" rx="4" ry="7"/>
  </g>
</svg>
